<svg xmlns="http://www.w3.org/2000/svg" width="682.667" height="682.667" preserveAspectRatio="xMidYMid meet" version="1.0" viewBox="0 0 512 512"><metadata>Created by potrace 1.14, written by Peter Selinger 2001-2017</metadata><g fill="#000" stroke="none"><path d="M1930 5116 c0 -2 -81 -219 -181 -482 -99 -264 -200 -533 -225 -599 -24 -66 -48 -129 -53 -140 -6 -11 -32 -81 -60 -155 -27 -74 -118 -315 -201 -535 -83 -220 -160 -425 -171 -455 -11 -30 -24 -64 -29 -75 -5 -11 -32 -83 -61 -160 -28 -77 -57 -155 -65 -173 -8 -17 -21 -51 -29 -75 -7 -23 -36 -100 -63 -172 -28 -71 -88 -231 -135 -355 -47 -124 -162 -430 -257 -680 -95 -250 -185 -489 -200 -530 -15 -41 -58 -154 -95 -250 -36 -96 -75 -199 -85 -228 l-19 -52 666 2 666 3 37 105 c20 58 40 112 43 120 3 8 20 56 36 105 17 50 53 153 80 230 101 287 181 518 181 521 0 2 371 4 825 4 593 0 825 -3 825 -11 0 -6 6 -25 14 -42 8 -18 64 -169 126 -337 62 -168 118 -318 125 -335 7 -16 22 -57 34 -90 11 -33 38 -107 60 -165 l39 -105 682 -3 c647 -2 680 -1 671 15 -5 10 -10 23 -11 28 -3 13 2 0 -155 405 -74 190 -166 428 -205 530 -39 102 -75 194 -80 205 -5 11 -109 276 -230 590 -121 314 -224 579 -229 590 -10 22 -134 341 -183 470 -28 75 -38 100 -59 150 -5 11 -193 495 -418 1075 l-410 1055 -600 3 c-331 1 -601 0 -601 -2z m765 -2216 c91 -256 184 -514 206 -573 21 -60 39 -113 39 -118 0 -5 -168 -9 -415 -9 -228 0 -415 2 -415 5 0 3 35 106 79 228 43 122 82 233 85 247 4 14 11 34 16 45 9 18 75 206 175 495 43 125 55 154 59 149 2 -2 79 -213 171 -469z" transform="translate(0.000000,512.000000) scale(0.100000,-0.100000)"/></g></svg>